<svg width="12" height="12" viewBox="0 0 12 12" fill="none" xmlns="http://www.w3.org/2000/svg">
<path d="M7.23409 6.04535L10.9769 2.30252C11.1546 2.12519 11.2545 1.88457 11.2547 1.63358C11.2549 1.38259 11.1554 1.14179 10.9781 0.964157C10.8008 0.786523 10.5602 0.686604 10.3092 0.686383C10.0582 0.686161 9.81738 0.785654 9.63974 0.962975L5.89691 4.70581L2.15408 0.962975C1.97644 0.785341 1.73552 0.685547 1.48431 0.685547C1.23309 0.685547 0.992171 0.785341 0.814537 0.962975C0.636903 1.14061 0.537109 1.38153 0.537109 1.63275C0.537109 1.88396 0.636903 2.12488 0.814537 2.30252L4.55737 6.04535L0.814537 9.78818C0.636903 9.96582 0.537109 10.2067 0.537109 10.458C0.537109 10.7092 0.636903 10.9501 0.814537 11.1277C0.992171 11.3054 1.23309 11.4051 1.48431 11.4051C1.73552 11.4051 1.97644 11.3054 2.15408 11.1277L5.89691 7.38489L9.63974 11.1277C9.81738 11.3054 10.0583 11.4051 10.3095 11.4051C10.5607 11.4051 10.8017 11.3054 10.9793 11.1277C11.1569 10.9501 11.2567 10.7092 11.2567 10.458C11.2567 10.2067 11.1569 9.96582 10.9793 9.78818L7.23409 6.04535Z" fill="white"/>
</svg>
