<svg width="15" height="16" viewBox="0 0 15 16" fill="none" xmlns="http://www.w3.org/2000/svg">
<path d="M5.78976 0.898926H1.02549C0.814896 0.898926 0.612928 0.982584 0.464016 1.1315C0.315103 1.28041 0.231445 1.48238 0.231445 1.69297V6.45724C0.231445 6.66783 0.315103 6.8698 0.464016 7.01871C0.612928 7.16762 0.814896 7.25128 1.02549 7.25128H5.78976C6.00035 7.25128 6.20232 7.16762 6.35123 7.01871C6.50014 6.8698 6.5838 6.66783 6.5838 6.45724V1.69297C6.5838 1.48238 6.50014 1.28041 6.35123 1.1315C6.20232 0.982584 6.00035 0.898926 5.78976 0.898926ZM13.7302 0.898926H8.96594C8.75534 0.898926 8.55337 0.982584 8.40446 1.1315C8.25555 1.28041 8.17189 1.48238 8.17189 1.69297V6.45724C8.17189 6.66783 8.25555 6.8698 8.40446 7.01871C8.55337 7.16762 8.75534 7.25128 8.96594 7.25128H13.7302C13.9408 7.25128 14.1428 7.16762 14.2917 7.01871C14.4406 6.8698 14.5242 6.66783 14.5242 6.45724V1.69297C14.5242 1.48238 14.4406 1.28041 14.2917 1.1315C14.1428 0.982584 13.9408 0.898926 13.7302 0.898926ZM5.78976 8.83937H1.02549C0.814896 8.83937 0.612928 8.92303 0.464016 9.07194C0.315103 9.22085 0.231445 9.42282 0.231445 9.63342V14.3977C0.231445 14.6083 0.315103 14.8102 0.464016 14.9592C0.612928 15.1081 0.814896 15.1917 1.02549 15.1917H5.78976C6.00035 15.1917 6.20232 15.1081 6.35123 14.9592C6.50014 14.8102 6.5838 14.6083 6.5838 14.3977V9.63342C6.5838 9.42282 6.50014 9.22085 6.35123 9.07194C6.20232 8.92303 6.00035 8.83937 5.78976 8.83937ZM11.3481 8.83937C11.9695 8.83937 12.5773 9.02167 13.0961 9.36368C13.615 9.70568 14.0221 10.1924 14.267 10.7635C14.512 11.3346 14.5841 11.965 14.4743 12.5767C14.3645 13.1883 14.0777 13.7543 13.6494 14.2046C13.2211 14.6548 12.6702 14.9696 12.0648 15.1098C11.4594 15.25 10.8261 15.2096 10.2435 14.9935C9.66088 14.7774 9.15443 14.3951 8.78691 13.894C8.41939 13.3929 8.20693 12.795 8.17586 12.1744L8.17189 12.0156L8.17586 11.8567C8.21661 11.0429 8.5686 10.2758 9.15904 9.71419C9.74948 9.15257 10.5332 8.83937 11.3481 8.83937Z" fill="#BFBFBF"/>
</svg>
