<svg width="16" height="16" viewBox="0 0 16 16" fill="none" xmlns="http://www.w3.org/2000/svg">
<path d="M13.1699 2.24896C11.9196 0.988588 10.2694 0.204597 8.50374 0.0321432C6.73811 -0.14031 4.96773 0.309582 3.49781 1.30426C2.02788 2.29893 0.950541 3.77606 0.451511 5.48097C-0.0475182 7.18589 0.0630386 9.01175 0.764122 10.6438C0.837193 10.7955 0.861169 10.9662 0.832704 11.1322L0.162121 14.3604C0.136285 14.4842 0.141561 14.6124 0.177474 14.7336C0.213387 14.8549 0.278812 14.9653 0.367868 15.0549C0.440874 15.1275 0.527798 15.1845 0.623402 15.2225C0.719006 15.2606 0.821309 15.2788 0.924148 15.2762H1.07655L4.33803 14.6199C4.50379 14.5999 4.67189 14.6236 4.82572 14.6886C6.45532 15.3907 8.27846 15.5014 9.98083 15.0016C11.6832 14.5019 13.1581 13.4229 14.1513 11.9508C15.1445 10.4787 15.5937 8.70564 15.4215 6.93737C15.2493 5.16911 14.4665 3.51641 13.208 2.26422L13.1699 2.24896ZM4.73428 8.40771C4.58357 8.40771 4.43624 8.36295 4.31092 8.27909C4.18561 8.19523 4.08794 8.07604 4.03026 7.93659C3.97258 7.79714 3.95749 7.64369 3.9869 7.49565C4.0163 7.34761 4.08888 7.21163 4.19545 7.1049C4.30202 6.99817 4.4378 6.92548 4.58562 6.89604C4.73344 6.86659 4.88665 6.8817 5.0259 6.93947C5.16514 6.99723 5.28415 7.09505 5.36788 7.22055C5.45162 7.34605 5.49631 7.4936 5.49631 7.64454C5.49631 7.84694 5.41602 8.04106 5.27312 8.18418C5.13021 8.3273 4.93638 8.40771 4.73428 8.40771ZM7.78239 8.40771C7.63167 8.40771 7.48434 8.36295 7.35903 8.27909C7.23371 8.19523 7.13604 8.07604 7.07837 7.93659C7.02069 7.79714 7.0056 7.64369 7.035 7.49565C7.06441 7.34761 7.13698 7.21163 7.24355 7.1049C7.35012 6.99817 7.4859 6.92548 7.63372 6.89604C7.78154 6.86659 7.93476 6.8817 8.074 6.93947C8.21324 6.99723 8.33226 7.09505 8.41599 7.22055C8.49972 7.34605 8.54441 7.4936 8.54441 7.64454C8.54441 7.84694 8.46413 8.04106 8.32122 8.18418C8.17831 8.3273 7.98449 8.40771 7.78239 8.40771ZM10.8305 8.40771C10.6798 8.40771 10.5324 8.36295 10.4071 8.27909C10.2818 8.19523 10.1841 8.07604 10.1265 7.93659C10.0688 7.79714 10.0537 7.64369 10.0831 7.49565C10.1125 7.34761 10.1851 7.21163 10.2917 7.1049C10.3982 6.99817 10.534 6.92548 10.6818 6.89604C10.8296 6.86659 10.9829 6.8817 11.1221 6.93947C11.2614 6.99723 11.3804 7.09505 11.4641 7.22055C11.5478 7.34605 11.5925 7.4936 11.5925 7.64454C11.5925 7.84694 11.5122 8.04106 11.3693 8.18418C11.2264 8.3273 11.0326 8.40771 10.8305 8.40771Z" fill="#BFBFBF"/>
</svg>
