<svg width="23" height="23" viewBox="0 0 23 23" fill="none" xmlns="http://www.w3.org/2000/svg">
<path d="M17.3253 6.17498C17.3253 9.25396 15.9315 11.75 11.7503 11.75C7.56904 11.75 6.17529 9.25396 6.17529 6.17498C6.17529 3.09599 7.56904 0.599976 11.7503 0.599976C15.9315 0.599976 17.3253 3.09599 17.3253 6.17498Z" fill="#BFBFBF"/>
<path d="M0.600098 21.2227C0.600098 17.6605 5.0499 14.6611 8.59909 14.9651C9.55576 15.047 10.6049 15.095 11.7501 15.095C12.8953 15.095 13.9444 15.047 14.9011 14.9651C18.4503 14.6611 22.9001 17.6605 22.9001 21.2227C22.9001 22.1464 22.1513 22.9 21.2276 22.9H2.2726C1.3489 22.9 0.600098 22.1464 0.600098 21.2227Z" fill="#BFBFBF"/>
</svg>
