<svg width="22" height="24" viewBox="0 0 22 24" fill="none" xmlns="http://www.w3.org/2000/svg">
<path d="M11.888 1.14287C11.5579 0.837072 11.1209 0.666687 10.6667 0.666687C10.2124 0.666687 9.77541 0.837072 9.44533 1.14287L0.833779 9.11806C0.570102 9.36257 0.360146 9.65725 0.216776 9.98407C0.0734063 10.3109 -0.00035835 10.6629 1.30889e-06 11.0187V20.722C0.0004726 21.4147 0.281632 22.0789 0.781678 22.5686C1.28172 23.0583 1.95973 23.3334 2.66667 23.3334H5.33333C6.04058 23.3334 6.71886 23.058 7.21895 22.568C7.71905 22.0779 8 21.4133 8 20.7202V16.3651C8 16.1341 8.09365 15.9125 8.26035 15.7492C8.42705 15.5858 8.65314 15.494 8.88889 15.494H12.4444C12.6802 15.494 12.9063 15.5858 13.073 15.7492C13.2397 15.9125 13.3333 16.1341 13.3333 16.3651V20.7202C13.3333 21.4133 13.6143 22.0779 14.1144 22.568C14.6145 23.058 15.2928 23.3334 16 23.3334H18.6667C19.3739 23.3334 20.0522 23.058 20.5523 22.568C21.0524 22.0779 21.3333 21.4133 21.3333 20.7202V11.0169C21.3332 10.6614 21.2591 10.3096 21.1154 9.98306C20.9717 9.65655 20.7616 9.36222 20.4978 9.11806L11.888 1.13938V1.14287Z" fill="white"/>
</svg>
