<svg width="24" height="24" viewBox="0 0 24 24" fill="none" xmlns="http://www.w3.org/2000/svg">
<path d="M13.0536 0.498516C12.7041 0.174732 12.2414 -0.00567627 11.7604 -0.00567627C11.2795 -0.00567627 10.8167 0.174732 10.4673 0.498516L1.34913 8.94284C1.06995 9.20173 0.84764 9.51375 0.695836 9.85978C0.544033 10.2058 0.465929 10.5786 0.46631 10.9552V21.2294C0.466809 21.9628 0.764507 22.6661 1.29397 23.1846C1.82343 23.7031 2.54132 23.9943 3.28984 23.9943H6.11337C6.86222 23.9943 7.58039 23.7028 8.10991 23.1839C8.63942 22.6651 8.9369 21.9613 8.9369 21.2275V16.6161C8.9369 16.3715 9.03606 16.137 9.21256 15.964C9.38907 15.791 9.62846 15.6939 9.87807 15.6939H13.6428C13.8924 15.6939 14.1318 15.791 14.3083 15.964C14.4848 16.137 14.584 16.3715 14.584 16.6161V21.2275C14.584 21.9613 14.8814 22.6651 15.4109 23.1839C15.9405 23.7028 16.6586 23.9943 17.4075 23.9943H20.231C20.9799 23.9943 21.698 23.7028 22.2276 23.1839C22.7571 22.6651 23.0545 21.9613 23.0545 21.2275V10.9534C23.0544 10.5769 22.9759 10.2044 22.8238 9.85871C22.6717 9.51301 22.4491 9.20135 22.1698 8.94284L13.0536 0.494827V0.498516Z" fill="white"/>
</svg>
