<svg width="21" height="21" viewBox="0 0 21 21" fill="none" xmlns="http://www.w3.org/2000/svg">
<circle cx="10.7134" cy="10.78" r="10" fill="#E8EBED"/>
<path d="M10.1111 7H7.44444C7.32657 7 7.21352 7.04683 7.13017 7.13017C7.04683 7.21352 7 7.32657 7 7.44444V10.1111C7 10.229 7.04683 10.342 7.13017 10.4254C7.21352 10.5087 7.32657 10.5556 7.44444 10.5556H10.1111C10.229 10.5556 10.342 10.5087 10.4254 10.4254C10.5087 10.342 10.5556 10.229 10.5556 10.1111V7.44444C10.5556 7.32657 10.5087 7.21352 10.4254 7.13017C10.342 7.04683 10.229 7 10.1111 7ZM14.5556 7H11.8889C11.771 7 11.658 7.04683 11.5746 7.13017C11.4913 7.21352 11.4444 7.32657 11.4444 7.44444V10.1111C11.4444 10.229 11.4913 10.342 11.5746 10.4254C11.658 10.5087 11.771 10.5556 11.8889 10.5556H14.5556C14.6734 10.5556 14.7865 10.5087 14.8698 10.4254C14.9532 10.342 15 10.229 15 10.1111V7.44444C15 7.32657 14.9532 7.21352 14.8698 7.13017C14.7865 7.04683 14.6734 7 14.5556 7ZM10.1111 11.4444H7.44444C7.32657 11.4444 7.21352 11.4913 7.13017 11.5746C7.04683 11.658 7 11.771 7 11.8889V14.5556C7 14.6734 7.04683 14.7865 7.13017 14.8698C7.21352 14.9532 7.32657 15 7.44444 15H10.1111C10.229 15 10.342 14.9532 10.4254 14.8698C10.5087 14.7865 10.5556 14.6734 10.5556 14.5556V11.8889C10.5556 11.771 10.5087 11.658 10.4254 11.5746C10.342 11.4913 10.229 11.4444 10.1111 11.4444ZM13.2222 11.4444C13.57 11.4444 13.9102 11.5465 14.2006 11.7379C14.491 11.9293 14.7189 12.2018 14.856 12.5214C14.9932 12.8411 15.0335 13.1939 14.972 13.5363C14.9106 13.8786 14.7501 14.1954 14.5103 14.4475C14.2706 14.6995 13.9622 14.8757 13.6234 14.9541C13.2845 15.0326 12.9301 15.01 12.604 14.889C12.2779 14.7681 11.9944 14.5541 11.7887 14.2736C11.583 13.9932 11.4641 13.6585 11.4467 13.3111L11.4444 13.2222L11.4467 13.1333C11.4695 12.6778 11.6665 12.2484 11.997 11.9341C12.3275 11.6197 12.7661 11.4444 13.2222 11.4444Z" fill="#BFBFBF"/>
</svg>
