<svg width="26" height="23" viewBox="0 0 26 23" fill="none" xmlns="http://www.w3.org/2000/svg">
<path d="M3.04454 22.6C2.37232 22.6 1.79706 22.3608 1.31876 21.8825C0.840468 21.4042 0.600912 20.8286 0.600098 20.1555V3.04442C0.600098 2.3722 0.839653 1.79694 1.31876 1.31864C1.79788 0.840346 2.37313 0.60079 3.04454 0.599976H22.6001C23.2723 0.599976 23.848 0.839531 24.3271 1.31864C24.8062 1.79775 25.0454 2.37301 25.0445 3.04442V20.1555C25.0445 20.8278 24.8054 21.4034 24.3271 21.8825C23.8488 22.3616 23.2731 22.6008 22.6001 22.6H3.04454ZM4.26676 17.7111H10.3779V15.2666H4.26676V17.7111ZM15.939 15.2666L21.989 9.21664L20.2473 7.47497L15.939 11.8139L14.1973 10.0722L12.4862 11.8139L15.939 15.2666ZM4.26676 12.8222H10.3779V10.3778H4.26676V12.8222ZM4.26676 7.93331H10.3779V5.48886H4.26676V7.93331Z" fill="#BFBFBF"/>
</svg>
