<svg width="26" height="28" viewBox="0 0 26 28" fill="none" xmlns="http://www.w3.org/2000/svg">
<mask id="mask0_22_45368" style="mask-type:luminance" maskUnits="userSpaceOnUse" x="0" y="0" width="26" height="28">
<path d="M2 3.8C2 3.32261 2.18964 2.86477 2.52721 2.52721C2.86477 2.18964 3.32261 2 3.8 2H18.2C18.6774 2 19.1352 2.18964 19.4728 2.52721C19.8104 2.86477 20 3.32261 20 3.8V26H3.8C3.32261 26 2.86477 25.8104 2.52721 25.4728C2.18964 25.1352 2 24.6774 2 24.2V3.8Z" fill="white" stroke="white" stroke-width="2.4" stroke-linejoin="round"/>
<path d="M20 14C20 13.6817 20.1264 13.3765 20.3515 13.1515C20.5765 12.9264 20.8817 12.8 21.2 12.8H23.6C23.9183 12.8 24.2235 12.9264 24.4485 13.1515C24.6736 13.3765 24.8 13.6817 24.8 14V24.2C24.8 24.6774 24.6104 25.1352 24.2728 25.4728C23.9352 25.8103 23.4774 26 23 26H20V14Z" stroke="white" stroke-width="2.4" stroke-linejoin="round"/>
<path d="M5.6001 6.79999H10.4001M5.6001 11H12.8001" stroke="black" stroke-width="2.4" stroke-linecap="round" stroke-linejoin="round"/>
</mask>
<g mask="url(#mask0_22_45368)">
<path d="M-1 -0.400024H27.8V28.4H-1V-0.400024Z" fill="black"/>
</g>
</svg>
