<svg width="16" height="16" viewBox="0 0 16 16" fill="none" xmlns="http://www.w3.org/2000/svg">
<path d="M15.0228 8.05712C15.3444 7.6446 15.5225 7.13916 15.5225 6.61328C15.5225 5.77893 15.042 4.98918 14.2686 4.54878C14.0696 4.43542 13.8429 4.37576 13.6121 4.37596H9.02178L9.13664 2.09219C9.16344 1.5403 8.96244 1.01628 8.57194 0.616757C8.3803 0.419837 8.1491 0.26316 7.89262 0.156408C7.63614 0.0496571 7.35983 -0.00490043 7.08077 -0.00389254C6.08538 -0.00389254 5.20484 0.646489 4.94068 1.57746L3.29637 7.35657H3.29063V15.3098H12.3315C12.5076 15.3098 12.6798 15.2764 12.8387 15.2095C13.7499 14.8322 14.3376 13.9682 14.3376 13.0093C14.3376 12.7752 14.3031 12.5448 14.2342 12.3218C14.5558 11.9092 14.7338 11.4038 14.7338 10.8779C14.7338 10.6438 14.6993 10.4134 14.6304 10.1904C14.952 9.77785 15.13 9.27241 15.13 8.74653C15.1262 8.51239 15.0918 8.28011 15.0228 8.05712ZM0.20874 7.9512V14.7152C0.20874 15.0441 0.482473 15.3098 0.821289 15.3098H2.06553V7.35657H0.821289C0.482473 7.35657 0.20874 7.6223 0.20874 7.9512Z" fill="#BFBFBF"/>
</svg>
