<svg width="24" height="24" viewBox="0 0 24 24" fill="none" xmlns="http://www.w3.org/2000/svg">
<path d="M15.3023 4.56477C14.5988 3.84817 13.7602 3.27806 12.8351 2.88737C11.91 2.49668 10.9166 2.29315 9.91238 2.28853C8.90815 2.28392 7.91296 2.47831 6.98428 2.86048C6.05561 3.24266 5.21185 3.80504 4.50174 4.51514C3.79164 5.22525 3.22926 6.069 2.84709 6.99768C2.46491 7.92636 2.27052 8.92155 2.27513 9.92578C2.27975 10.93 2.48328 11.9234 2.87397 12.8485C3.26466 13.7736 3.83477 14.6122 4.55137 15.3157C5.9815 16.7198 7.90822 17.5024 9.91238 17.4932C11.9165 17.484 13.836 16.6837 15.2532 15.2666C16.6703 13.8494 17.4706 11.9299 17.4798 9.92578C17.489 7.92162 16.7064 5.9949 15.3023 4.56477ZM2.89756 2.91096C4.69034 1.11862 7.10011 0.0788594 9.63408 0.00430449C12.168 -0.0702504 14.6348 0.826031 16.5298 2.50987C18.4249 4.1937 19.6051 6.53787 19.8291 9.06302C20.0532 11.5882 19.3041 14.1035 17.7351 16.0947L23.9866 22.3462L22.3328 24L16.0813 17.7485C14.0895 19.3117 11.5763 20.0561 9.0544 19.8299C6.53252 19.6037 4.19196 18.4238 2.51016 16.5311C0.82836 14.6383 -0.0679654 12.1752 0.00402342 9.64422C0.0760123 7.11324 1.11089 4.70507 2.89756 2.91096Z" fill="black"/>
</svg>
